<svg width="72" height="30" viewBox="0 0 72 30" fill="none" xmlns="http://www.w3.org/2000/svg">
<path d="M71.9897 30H0V0H72L71.9897 30Z" fill="#0058A3"/>
<path d="M1.40326 15C1.40326 22.2512 15.9003 28.2745 36 28.2745C56.0998 28.2745 70.5864 22.2618 70.5864 15C70.5864 7.73814 56.0894 1.72543 35.9897 1.72543C15.8899 1.72543 1.40326 7.74873 1.40326 15Z" fill="#FFD800"/>
<path d="M33.957 19.2556C34.184 19.5943 34.4316 19.9119 34.7205 20.1977H26.9303C26.9303 19.8801 26.6414 19.2344 26.3009 18.7263C25.9604 18.2181 24.1857 15.4341 24.1857 15.4341V19.2556C24.1857 19.5731 24.1857 19.8801 24.3405 20.1977H17.8504C18.0051 19.8801 18.0051 19.5731 18.0051 19.2556V10.173C18.0051 9.85541 18.0051 9.54843 17.8504 9.23085H24.3405C24.1857 9.54843 24.1857 9.85541 24.1857 10.173V14.1321C24.1857 14.1321 26.2597 11.3692 26.7343 10.7129C27.0954 10.2259 27.5391 9.53784 27.5391 9.22027H34.3078C33.8435 9.53784 33.3276 10.1095 32.9046 10.6388C32.5331 11.1045 30.4282 13.7404 30.4282 13.7404C30.4282 13.7404 33.5443 18.631 33.957 19.2556ZM35.9897 10.173V19.2556C35.9897 19.5731 35.9897 19.8801 35.8349 20.1977H48.3611V17.1596C48.0516 17.3184 47.7524 17.3184 47.4428 17.3184H42.1702V15.8787H47.2365V13.571H42.1702V12.1313H47.4428C47.7524 12.1313 48.0516 12.1313 48.3611 12.2795V9.24144H35.8452C35.9897 9.54842 35.9897 9.85541 35.9897 10.173ZM65.7266 19.2556C65.8297 19.6049 66.0052 19.9225 66.2322 20.1977H59.4428C59.4738 19.8801 59.3603 19.5731 59.2365 19.2556C59.2365 19.2556 59.1333 19.0015 58.9888 18.631L58.9269 18.4722H55.0163L54.9544 18.631C54.9544 18.631 54.8409 18.938 54.7377 19.2556C54.6346 19.5731 54.5211 19.8801 54.5623 20.1977H49.2072C49.4239 19.9225 49.589 19.6049 49.6922 19.2556C49.8676 18.758 52.6535 10.8822 52.9011 10.173C53.0146 9.85541 53.1281 9.54843 53.0868 9.23085H62.1359C62.0533 9.54843 62.2184 9.85541 62.3319 10.173C62.6002 10.8716 65.4996 18.6416 65.7266 19.2556ZM58.0705 16.1539C57.5752 14.8307 57.1728 13.7298 57.1212 13.6134C57.0387 13.3805 56.9665 13.137 56.9149 12.8935C56.8736 13.137 56.8014 13.3805 56.7291 13.6134C56.6982 13.7192 56.2958 14.8307 55.8315 16.1539H58.0705ZM14.7756 9.23085H7.71796C7.87273 9.54843 7.87273 9.85541 7.87273 10.173V19.2556C7.87273 19.5731 7.87273 19.8801 7.71796 20.1977H14.7756C14.6208 19.8801 14.6208 19.5731 14.6208 19.2556V10.173C14.6208 9.85541 14.6208 9.53784 14.7756 9.23085ZM63.5598 10.0989C63.5288 9.32612 64.1169 8.68039 64.8702 8.65922C64.9011 8.65922 64.9321 8.65922 64.963 8.65922C65.7266 8.64863 66.356 9.27319 66.3663 10.046C66.3663 10.0671 66.3663 10.0777 66.3663 10.0989C66.3869 10.8928 65.7782 11.5597 64.994 11.5809C64.2201 11.6021 63.5701 10.9775 63.5494 10.173C63.5598 10.1518 63.5598 10.1201 63.5598 10.0989ZM63.8383 10.0989C63.8383 10.734 64.3336 11.2527 64.963 11.2633C65.5821 11.2633 66.0877 10.7552 66.098 10.1095C66.098 9.47432 65.6027 8.95562 64.9733 8.94504C64.3749 8.92387 63.8693 9.40022 63.8487 10.0142C63.8383 10.046 63.8383 10.0671 63.8383 10.0989ZM64.6844 10.9563H64.4368V9.23085H65.0662C65.3654 9.24144 65.5924 9.48491 65.5924 9.7919C65.5924 10.0036 65.4789 10.1942 65.2932 10.3L65.6543 10.9669H65.3757L65.0456 10.3529H64.6844V10.9563ZM64.6844 10.0989H65.0249C65.19 10.1095 65.3345 9.98244 65.3345 9.81307C65.3448 9.6437 65.221 9.4955 65.0559 9.4955C65.0456 9.4955 65.0353 9.4955 65.0249 9.4955H64.6844V10.0989Z" fill="#0058A3"/>
</svg>
